<?xml version="1.0" encoding="UTF-8" standalone="no"?>
<!-- Created with Inkscape (http://www.inkscape.org/) -->

<svg
   xmlns:dc="http://purl.org/dc/elements/1.1/"
   xmlns:cc="http://creativecommons.org/ns#"
   xmlns:rdf="http://www.w3.org/1999/02/22-rdf-syntax-ns#"
   xmlns:svg="http://www.w3.org/2000/svg"
   xmlns="http://www.w3.org/2000/svg"
   xmlns:xlink="http://www.w3.org/1999/xlink"
   xmlns:sodipodi="http://sodipodi.sourceforge.net/DTD/sodipodi-0.dtd"
   xmlns:inkscape="http://www.inkscape.org/namespaces/inkscape"
   version="1.1"
   id="svg869"
   width="384"
   height="85.120003"
   viewBox="0 0 384 85.120003"
   sodipodi:docname="smsc.svg"
   inkscape:version="0.92.4 (5da689c313, 2019-01-14)">
  <metadata
     id="metadata875">
    <rdf:RDF>
      <cc:Work
         rdf:about="">
        <dc:format>image/svg+xml</dc:format>
        <dc:type
           rdf:resource="http://purl.org/dc/dcmitype/StillImage" />
        <dc:title></dc:title>
      </cc:Work>
    </rdf:RDF>
  </metadata>
  <defs
     id="defs873">
    <clipPath
       clipPathUnits="userSpaceOnUse"
       id="clipPath936">
      <path
         style="fill:#373431;stroke-width:0.31999999"
         d="m 131.41786,73.227099 c -0.60742,-0.607424 -0.9204,-1.212947 -0.85538,-1.654934 0.16305,-1.108448 0.76826,-1.027587 1.49218,0.19937 0.51565,0.873971 0.87637,1.133478 1.57556,1.133478 1.16662,0 1.67277,-0.524534 1.68288,-1.744 0.007,-0.804237 -0.38984,-1.342051 -2.25311,-3.056 -2.76105,-2.539789 -3.14868,-3.725325 -1.75829,-5.377703 0.72311,-0.859369 1.08064,-1.022297 2.24331,-1.022297 1.15702,0 1.52102,0.163897 2.2268,1.002672 0.46403,0.551468 0.79918,1.233814 0.74477,1.516323 -0.16963,0.880854 -1.02685,0.733392 -1.59669,-0.274669 -0.6532,-1.15553 -1.90253,-1.30135 -2.60136,-0.303626 -0.63882,0.912036 -0.32814,1.786964 0.99415,2.799693 3.1463,2.409732 3.78415,3.546954 3.21123,5.725268 -0.57407,2.182643 -3.39598,2.766489 -5.10605,1.056425 z m 15.18993,0.57752 c -1.1918,-0.576188 -1.40592,-1.716876 -1.31151,-6.986947 0.0743,-4.149597 0.16656,-4.952659 0.56873,-4.952659 0.39932,0 0.50689,0.839136 0.64,4.992237 0.17081,5.329619 0.3823,6.047763 1.78104,6.047763 1.45483,0 1.73896,-1.001974 1.73896,-6.132317 0,-4.750691 0.18507,-5.523607 1.13402,-4.736051 0.36376,0.3019 0.46431,1.273123 0.45835,4.427549 -0.009,4.71759 -0.31457,6.354134 -1.33313,7.137814 -0.81569,0.627594 -2.59463,0.725632 -3.67646,0.202611 z m 14.84983,-0.380339 c -1.04576,-0.969181 -1.50904,-2.651325 -1.50904,-5.479267 0,-4.203876 1.11944,-6.24 3.43068,-6.24 0.67284,0 1.53237,0.216448 1.91006,0.480992 0.8601,0.602441 1.58679,2.63591 1.11174,3.11096 -0.4763,0.476301 -1.33605,0.05654 -1.33605,-0.652314 0,-0.844896 -1.08762,-1.730918 -1.97061,-1.605354 -1.13799,0.161831 -1.65204,1.62145 -1.6712,4.745319 -0.0192,3.132861 0.48208,4.717997 1.57914,4.993341 1.03357,0.259408 1.81951,-0.275418 2.23967,-1.524096 0.19781,-0.587866 0.59891,-1.115408 0.89133,-1.17231 1.18209,-0.230039 0.26318,3.070857 -1.0506,3.773977 -1.08977,0.583226 -2.74265,0.386599 -3.62512,-0.431248 z m 15.51676,0.261309 c -1.12142,-0.785482 -1.7099,-2.263971 -1.89963,-4.772627 -0.33889,-4.480884 0.98093,-7.207949 3.48844,-7.207949 0.89574,0 1.47023,0.219321 2.02335,0.772441 0.90207,0.902064 1.34329,2.330743 0.86693,2.807104 -0.46988,0.469876 -0.96454,0.07287 -1.49698,-1.201427 -0.34773,-0.832224 -0.65095,-1.098118 -1.25229,-1.098118 -1.72042,0 -2.25553,1.516749 -2.07252,5.874493 0.12422,2.958166 0.67919,4.045507 2.06478,4.045507 0.79712,0 1.72855,-1.078368 1.72855,-2.001245 0,-0.662368 0.85896,-1.107792 1.29515,-0.671609 0.47854,0.478547 -0.28042,2.583353 -1.18933,3.298297 -0.99038,0.779037 -2.56748,0.847827 -3.55645,0.155133 z m 13.75463,0.115424 c -0.59541,-0.595414 -0.5352,-11.252151 0.0664,-11.751434 0.27917,-0.231686 1.34239,-0.337827 2.79661,-0.279184 1.90802,0.07695 2.36559,0.196253 2.45002,0.638819 0.0874,0.458071 -0.21595,0.55936 -1.91661,0.64 l -2.02042,0.0958 -0.0984,1.729712 c -0.11033,1.938493 0.14024,2.25767 1.77845,2.265389 0.70894,0.0033 1.04,0.157699 1.04,0.484899 0,0.317011 -0.31709,0.48 -0.93383,0.48 -1.76916,0 -1.94617,0.218281 -1.94617,2.4 0,2.292451 0.11505,2.4 2.56729,2.4 1.58489,0 2.34887,0.487229 1.55371,0.990877 -0.67189,0.425568 -4.89157,0.350553 -5.337,-0.09488 z m 14.75243,-0.183117 c -0.90028,-0.707465 -1.41859,-2.056614 -1.02175,-2.659593 0.24301,-0.369252 0.41575,-0.304973 0.93171,0.34671 0.34836,0.44 0.78311,0.98 0.96612,1.2 0.55409,0.666122 1.84798,0.468307 2.39472,-0.366115 0.79599,-1.214848 0.30372,-2.280327 -1.80228,-3.900858 -2.16377,-1.664982 -2.52495,-2.209482 -2.52495,-3.806534 0,-1.639047 1.14867,-2.726493 2.88,-2.726493 1.54974,0 2.88,1.10183 2.88,2.385456 0,1.070297 -0.8552,1.074678 -1.34172,0.0069 -0.2024,-0.444218 -0.7256,-0.897424 -1.16267,-1.00712 -1.95143,-0.48978 -2.65538,1.625629 -1.00855,3.030761 3.48801,2.976096 3.57059,3.077997 3.74447,4.620676 0.15178,1.346569 0.0727,1.588333 -0.80702,2.468077 -1.13957,1.139568 -2.96736,1.320291 -4.12808,0.408163 z m 13.93643,-0.390797 c -0.6213,-0.621299 -0.92189,-1.21166 -0.85539,-1.68 0.13439,-0.946441 0.82243,-0.922073 1.31314,0.0465 1.22432,2.416589 4.2895,1.05367 3.16766,-1.408487 -0.18862,-0.413987 -1.11968,-1.339139 -2.06901,-2.055894 -1.85209,-1.398336 -2.46926,-2.371565 -2.46926,-3.893811 0,-2.977828 4.70199,-3.507844 5.70082,-0.642602 0.53766,1.542333 -0.57737,1.9172 -1.28558,0.432205 -0.59953,-1.257098 -2.33448,-1.422932 -2.85833,-0.273213 -0.46633,1.023485 0.13831,2.034563 2.04092,3.412803 1.7694,1.281747 2.47968,2.426419 2.46989,3.98041 -0.009,1.388509 -0.39873,2.088285 -1.48668,2.667731 -1.25814,0.670087 -2.63176,0.450781 -3.66818,-0.585645 z m 24.20692,0.592733 c -0.0963,-0.250982 -0.13566,-3.043494 -0.0874,-6.205578 l 0.0877,-5.749241 1.57879,-0.09993 c 2.02003,-0.127866 2.88555,0.09814 3.69235,0.964147 0.79386,0.852096 0.87303,2.993341 0.14891,4.027165 -0.46108,0.658285 -0.44864,0.785843 0.16,1.640598 1.10346,1.549677 0.75855,4.21281 -0.66039,5.098951 -0.34913,0.218038 -1.55953,0.482787 -2.68977,0.58833 -1.61416,0.150732 -2.09256,0.09401 -2.23011,-0.264439 z m 4.40022,-1.911235 c 0.6419,-0.773133 0.68567,-1.191389 0.24574,-2.34849 -0.34866,-0.917053 -1.68605,-1.574297 -2.608,-1.28168 -0.49987,0.15865 -0.59774,0.518016 -0.59774,2.194816 0,1.102807 0.107,2.112103 0.23778,2.24288 0.40983,0.409834 2.13684,-0.10247 2.72222,-0.807526 z m -0.19433,-5.908384 c 0.69996,-1.068256 0.27532,-2.4069 -0.89393,-2.818103 -1.4599,-0.513421 -1.87174,-0.101337 -1.87174,1.872861 v 1.770042 h 1.11262 c 0.84261,0 1.24378,-0.200167 1.65305,-0.8248 z m 12.91921,7.55392 c -0.17868,-0.333875 -0.32488,-1.600698 -0.32488,-2.815162 0,-1.836912 -0.21426,-2.734694 -1.27451,-5.340473 -0.70098,-1.722797 -1.19156,-3.266583 -1.09017,-3.430637 0.45044,-0.728823 1.26048,0.04915 2.03576,1.95518 0.4604,1.131917 0.98965,2.108884 1.17611,2.171034 0.18646,0.06215 0.64999,-0.739885 1.03007,-1.782301 0.77012,-2.112128 1.46002,-2.917478 2.01976,-2.357744 0.25319,0.253194 -0.0163,1.26208 -0.97497,3.650439 -1.15071,2.866678 -1.32468,3.622048 -1.32346,5.746307 9.6e-4,1.868589 -0.11071,2.488791 -0.47371,2.628083 -0.27642,0.106074 -0.61099,-0.07155 -0.8,-0.424726 z m 22.78768,0.381558 c -0.31064,-0.211683 -0.38666,-1.678451 -0.32,-6.17416 l 0.0874,-5.896518 1.97653,0.0022 c 1.64192,0.0019 2.11435,0.131651 2.79071,0.767056 1.12479,1.056688 1.55271,2.572752 1.54012,5.456429 -0.0124,2.831584 -0.58667,4.510851 -1.81882,5.318182 -0.94705,0.620535 -3.63094,0.952775 -4.25598,0.526848 z m 3.12843,-1.51119 c 0.62789,-0.324694 1.03723,-0.869482 1.26233,-1.68 0.43746,-1.575232 0.39749,-4.437978 -0.0814,-5.828688 -0.41821,-1.214554 -1.73652,-2.154848 -2.57176,-1.834336 -0.45953,0.176336 -0.53018,0.816019 -0.53018,4.80016 0,2.528189 0.096,4.69271 0.21333,4.810042 0.31966,0.319651 0.6827,0.262851 1.70766,-0.267178 z m 11.85027,1.141549 c -0.18982,-0.354682 -0.33126,-2.865639 -0.33126,-5.880816 0,-4.13313 0.0966,-5.342042 0.4504,-5.635655 0.69728,-0.578688 5.1496,-0.323258 5.1496,0.295434 0,0.355555 -0.49778,0.521481 -1.92,0.64 l -1.92,0.16 -0.0985,1.729712 c -0.11033,1.938493 0.14024,2.25767 1.77845,2.265389 0.70893,0.0033 1.04,0.157699 1.04,0.484899 0,0.317011 -0.31709,0.48 -0.93383,0.48 -1.76916,0 -1.94617,0.218281 -1.94617,2.4 0,2.292451 0.11505,2.4 2.56729,2.4 1.58489,0 2.34887,0.487229 1.55371,0.990877 -0.24255,0.153629 -1.47993,0.281529 -2.74974,0.284224 -1.95804,0.0042 -2.35906,-0.08912 -2.64,-0.614064 z m 14.91876,0.256553 c -0.8476,-0.492697 -1.63971,-2.497849 -1.16919,-2.959702 0.27006,-0.265088 0.52463,-0.150448 0.98177,0.442112 1.16076,1.504618 1.28373,1.6 2.06264,1.6 1.02949,0 1.85529,-1.248029 1.57218,-2.376019 -0.1277,-0.508813 -0.95839,-1.418298 -2.09247,-2.290954 -2.19499,-1.689002 -2.52495,-2.202416 -2.52495,-3.928765 0,-1.629293 1.10007,-2.604262 2.93844,-2.604262 1.44926,0 2.82156,1.189996 2.82156,2.446726 0,1.036925 -0.69887,0.94368 -1.5494,-0.206726 -1.12339,-1.51946 -2.9306,-1.161264 -2.9306,0.580854 0,0.468861 0.38935,1.104499 0.98986,1.616 3.45155,2.939981 3.54803,3.059223 3.72167,4.599789 0.15178,1.34657 0.0727,1.588333 -0.80702,2.468077 -0.75328,0.753286 -1.25403,0.973066 -2.1999,0.965549 -0.67353,-0.0053 -1.4901,-0.164058 -1.81459,-0.352679 z m 13.58899,-0.04659 c -0.23747,-0.237462 -0.35901,-2.219894 -0.35901,-5.855814 0,-4.422183 0.0911,-5.572423 0.46598,-5.883549 0.98087,-0.814045 1.13402,-0.01818 1.13402,5.893017 0,4.689252 -0.0885,5.900845 -0.44099,6.036109 -0.24256,0.09308 -0.60256,0.0077 -0.8,-0.189763 z m 11.20429,-0.45847 c -1.19728,-1.197277 -1.80007,-3.90512 -1.50669,-6.76849 0.2255,-2.201024 0.52201,-2.985357 1.55917,-4.124035 0.71244,-0.782208 2.36064,-0.969207 3.44195,-0.390516 0.72909,0.390202 1.58227,1.929444 1.58227,2.854625 0,1.07518 -0.91152,0.748476 -1.51808,-0.544109 -0.68694,-1.463837 -1.86419,-1.756554 -2.81862,-0.70082 -0.5402,0.597559 -0.6233,1.171041 -0.6233,4.301917 0,3.103457 0.0859,3.707306 0.6096,4.285677 1.23322,1.361946 3.0704,0.452516 3.0704,-1.519891 0,-0.796464 -0.17699,-1.090013 -0.8,-1.326883 -1.35402,-0.514797 -0.7879,-1.28 0.94698,-1.28 1.19548,0 1.49068,0.691453 1.38764,3.2504 -0.0902,2.240474 -0.13177,2.353654 -0.89462,2.436902 -0.44,0.04802 -1.40832,0.170791 -2.15178,0.272829 -1.19276,0.163699 -1.46156,0.07574 -2.28492,-0.747606 z m 14.10928,0.598022 c -0.3112,-0.196685 -0.38679,-1.65032 -0.32,-6.154029 l 0.0874,-5.896518 0.82739,-0.09618 c 1.06602,-0.12392 1.28816,0.19265 2.38858,3.404013 1.45056,4.233114 1.72185,4.31 1.73385,0.491348 0.008,-2.437444 0.1257,-3.336685 0.47616,-3.627549 0.98087,-0.814045 1.13402,-0.01818 1.13402,5.893017 0,5.19577 -0.0614,5.890442 -0.5368,6.072874 -0.82128,0.315149 -1.18826,-0.300697 -2.65616,-4.457523 -0.74582,-2.112 -1.48451,-3.9768 -1.64154,-4.144 -0.16832,-0.179232 -0.2855,1.338829 -0.2855,3.698838 0,4.080759 -0.32422,5.37392 -1.20742,4.815709 z m -328.472579,-5.718627 -11.76,-5.625684 v -8.27312 c 0,-5.716886 0.106914,-8.273117 0.346024,-8.273117 0.190313,0 2.566313,-0.952454 5.28,-2.116566 l 4.933976,-2.11657 v -6.00425 c 0,-4.431509 0.104775,-6.082123 0.4,-6.301546 0.22,-0.163513 8.734048,-3.801071 18.920108,-8.083462 l 18.520106,-7.786166 1.319894,0.624204 c 27.784461,13.139828 49.153511,23.340413 49.155121,23.464356 0.001,0.088 -8.24132,3.638486 -18.316577,7.889968 l -18.318652,7.729972 -0.08531,8.350029 c -0.06027,5.898861 -0.190522,8.350032 -0.443703,8.350032 -0.417081,0 -12.468806,-5.671719 -12.841728,-6.043504 -0.137907,-0.137488 -0.248339,-8.620503 -0.245401,-18.851143 0.0029,-10.230638 -0.07964,-18.822605 -0.183495,-19.093258 -0.103859,-0.270653 -0.344829,-0.492097 -0.535488,-0.492097 -0.275523,0 -10.710333,4.334092 -21.744873,9.031719 -0.929002,0.395494 -1.52,0.850358 -1.52,1.169879 0,0.372652 3.221814,2.049872 11.219033,5.840435 6.170471,2.92471 11.224106,5.440106 11.230301,5.58977 0.0062,0.149664 -4.993546,2.379558 -11.110538,4.955318 -6.116995,2.57576 -11.31463,4.9469 -11.5503,5.2692 -0.330733,0.452304 -0.428496,2.397287 -0.428496,8.524842 0,4.366362 -0.108,7.9293 -0.24,7.917642 -0.132,-0.01165 -5.532,-2.552758 -12,-5.646883 z M 130.57178,50.553051 c -0.29933,-0.189901 -0.38753,-1.04856 -0.32,-3.115101 l 0.0932,-2.852938 19.84,-0.16 c 18.41785,-0.148531 19.90076,-0.201261 20.68764,-0.7356 1.95481,-1.327437 1.8996,-3.471907 -0.12111,-4.703939 -1.00501,-0.612756 -1.62562,-0.638116 -15.64285,-0.639264 -8.02798,-6.4e-4 -15.30482,-0.135562 -16.17076,-0.299783 -3.20837,-0.608454 -5.29973,-1.637024 -7.20746,-3.544758 -1.43421,-1.434205 -1.93089,-2.203216 -2.34662,-3.633289 -0.61069,-2.100709 -0.46074,-3.193855 0.74622,-5.439919 1.58407,-2.947832 5.07481,-5.02722 9.4381,-5.622147 2.654,-0.36187 37.84288,-0.495418 38.75067,-0.147065 0.41185,0.158042 0.50617,0.754333 0.50617,3.2 v 3.005763 h -18.85917 c -12.58159,0 -19.15902,0.113613 -19.76,0.341316 -2.9917,1.133525 -3.11484,4.333592 -0.20927,5.438288 0.45015,0.171146 7.02701,0.300397 15.2856,0.300397 8.3988,0 15.2106,0.135619 16.19575,0.322448 3.60641,0.683942 7.05516,2.839414 8.50708,5.316928 2.02518,3.455712 1.5556,6.174739 -1.60158,9.273555 -2.22865,2.187463 -4.24786,3.128384 -7.82332,3.645559 -2.5896,0.374576 -39.4041,0.420189 -39.98832,0.04955 z m 54.65323,-0.04146 c -0.41186,-0.260525 -0.48,-1.906512 -0.48,-11.595101 0,-12.90455 0.0603,-13.273144 2.54501,-15.563496 1.57104,-1.448129 3.05469,-2.272502 5.61499,-3.119896 1.61138,-0.533324 3.46244,-0.591922 21.92,-0.6939 13.2551,-0.07323 21.09161,0.0074 22.88,0.235522 4.78128,0.6098 8.40882,2.886585 10.13951,6.363962 0.50238,1.009401 0.60202,2.307327 0.74049,9.646333 l 0.16,8.48 22.08,0.08382 c 16.05094,0.06093 22.32325,-0.01642 22.97085,-0.283315 1.17837,-0.485632 2.14915,-1.760935 2.14915,-2.823322 0,-0.975568 -0.96747,-2.154202 -2.13156,-2.596787 -0.44981,-0.171018 -7.08648,-0.302436 -15.40927,-0.305127 -15.81167,-0.0051 -16.96354,-0.10552 -20.23623,-1.763913 -3.11895,-1.580493 -5.40092,-4.662306 -5.41591,-7.314231 -0.0131,-2.321632 0.65727,-3.76851 2.69904,-5.82513 2.16974,-2.185523 4.18169,-3.127282 7.79884,-3.650488 2.58832,-0.374389 38.44454,-0.419909 39.02832,-0.04955 0.29933,0.189898 0.38753,1.048559 0.32,3.1151 l -0.0932,2.852937 -19.37443,0.16 c -21.33297,0.176174 -20.53749,0.09598 -21.39093,2.156373 -0.51659,1.247146 -0.0293,2.461207 1.31738,3.282284 1.0074,0.614211 1.62043,0.638998 15.83223,0.640147 9.77413,8e-4 15.35891,0.123766 16.48,0.362883 5.74644,1.225658 9.91625,5.498263 9.42381,9.656128 -0.48502,4.095264 -4.38465,7.444055 -9.79196,8.408791 -3.33043,0.594195 -54.40285,0.658643 -54.9921,0.0694 -0.28377,-0.283773 -0.384,-3.255248 -0.384,-11.384615 V 28.055781 l -0.90797,-0.907976 c -1.20811,-1.208109 -2.29948,-1.333388 -10.61203,-1.218162 l -6.88,0.09537 -0.0839,12.14353 c -0.0637,9.226305 -0.17906,12.203969 -0.48,12.395102 -0.46441,0.29496 -6.98856,0.351619 -7.72992,0.06713 -0.449,-0.1723 -0.50617,-1.538345 -0.50617,-12.096 0,-8.83026 -0.0991,-12.000863 -0.384,-12.285764 -0.27688,-0.276881 -2.44157,-0.382039 -7.76,-0.376972 -6.54449,0.0062 -7.52641,0.07532 -8.71018,0.612796 -0.7338,0.333172 -1.4898,0.896542 -1.68,1.251934 -0.22823,0.426452 -0.34582,4.331079 -0.34582,11.483206 0,8.002141 -0.10045,10.937488 -0.384,11.221037 -0.46664,0.46664 -7.21499,0.526653 -7.936,0.07058 z m 133.74419,-0.02608 c -2.37303,-0.349382 -5.0016,-1.362451 -6.61646,-2.550032 -1.5352,-1.129002 -3.19527,-3.487536 -3.46048,-4.916474 -0.10146,-0.5467 -0.1401,-4.461785 -0.0859,-8.700189 l 0.0986,-7.706178 0.96,-1.544978 c 1.64983,-2.65516 5.30628,-4.644892 9.70491,-5.281137 1.17429,-0.169857 10.28946,-0.311684 20.25592,-0.31517 15.16631,-0.0053 18.18157,0.06687 18.49344,0.442647 0.23632,0.284751 0.33843,1.426015 0.27917,3.12 l -0.0934,2.671014 -19.2,0.16 c -20.86004,0.173834 -20.52096,0.142769 -21.464,1.966408 -0.35098,0.678723 -0.456,2.386347 -0.456,7.414546 0,6.129482 0.041,6.584909 0.66482,7.377914 1.31925,1.677162 0.76742,1.6304 21.25518,1.801133 l 19.2,0.16 0.0934,2.671015 c 0.0593,1.693984 -0.0428,2.835248 -0.27917,3.12 -0.31267,0.376726 -3.3663,0.442704 -18.97344,0.409964 -10.23046,-0.02147 -19.39994,-0.156675 -20.37664,-0.300473 z M 365.38517,24.8655 c -2.78256,-1.109565 -4.0808,-4.752278 -2.57424,-7.223109 2.25094,-3.69163 7.57424,-3.106295 9.14454,1.005506 0.44618,1.168263 0.47236,1.598984 0.15549,2.55903 -1.01078,3.062738 -4.06019,4.721494 -6.72579,3.658573 z m 4.53088,-1.89356 c 1.27091,-1.258296 1.30211,-1.340629 1.15936,-3.061998 -0.1207,-1.455587 -0.32704,-1.94926 -1.1647,-2.786935 -0.89549,-0.895467 -1.22836,-1.017993 -2.7657,-1.017993 -1.53734,0 -1.87021,0.122526 -2.7657,1.018002 -0.83936,0.839366 -1.0439,1.330383 -1.16563,2.798174 -0.14336,1.72867 -0.11053,1.817253 1.13421,3.061997 1.12874,1.128748 1.45978,1.281827 2.77197,1.281827 1.31219,0 1.64608,-0.15441 2.79619,-1.293064 z m -4.6568,-0.493107 c -0.10685,-0.278385 -0.19424,-1.346608 -0.19424,-2.373819 0,-2.695513 0.12371,-2.88 1.93139,-2.88 2.33795,0 3.18375,1.190833 2.02288,2.848181 -0.48765,0.696204 -0.48765,0.815067 0,1.640576 0.64163,1.086225 0.6529,1.271243 0.0774,1.271243 -0.24663,0 -0.74576,-0.504 -1.10922,-1.12 -0.64819,-1.098621 -1.60646,-1.509471 -1.6793,-0.72 -0.0202,0.22 -0.0704,0.544 -0.11126,0.72 -0.0409,0.176 -0.0963,0.5 -0.1231,0.72 -0.0688,0.564379 -0.58292,0.497361 -0.8145,-0.106172 z m 3.00576,-3.173819 c 0.31782,-0.382949 0.31782,-0.577051 0,-0.96 -0.8512,-1.025631 -2.27546,-0.267835 -1.80429,0.96 0.10131,0.264 0.45911,0.48 0.79507,0.48 0.33597,0 0.79012,-0.216 1.00922,-0.48 z"
         id="path938"
         inkscape:connector-curvature="0" />
    </clipPath>
  </defs>
  <sodipodi:namedview
     pagecolor="#ffffff"
     bordercolor="#666666"
     borderopacity="1"
     objecttolerance="10"
     gridtolerance="10"
     guidetolerance="10"
     inkscape:pageopacity="0"
     inkscape:pageshadow="2"
     inkscape:window-width="1920"
     inkscape:window-height="1015"
     id="namedview871"
     showgrid="false"
     inkscape:zoom="3.7734375"
     inkscape:cx="192"
     inkscape:cy="21.359173"
     inkscape:window-x="0"
     inkscape:window-y="0"
     inkscape:window-maximized="1"
     inkscape:current-layer="svg869"
     inkscape:pagecheckerboard="true" />
  <image
     width="384"
     height="85.120003"
     preserveAspectRatio="none"
     xlink:href="file:///home/comet/Downloads/smsc.jpg"
     id="image877"
     x="0.2650106"
     y="0.26501045"
     sodipodi:absref="/home/comet/Downloads/smsc.jpg"
     clip-path="url(#clipPath936)"
     style="fill:none;fill-opacity:1"
     inkscape:export-filename="/home/comet/project/i2c/ecomet_i2c_tools/fpc/emc2301/images/smsc.png"
     inkscape:export-xdpi="46.100101"
     inkscape:export-ydpi="46.100101" />
</svg>
